HIERARCHY
ROOT hip
{
  OFFSET 0 0 0
  CHANNELS 6 Xposition Yposition Zposition Zrotation Yrotation Xrotation
  JOINT abdomen
  {
    OFFSET 0 20.6881 -0.73152
    CHANNELS 3 Zrotation Xrotation Yrotation
    JOINT chest
    {
      OFFSET 0 11.7043 -0.48768
      CHANNELS 3 Zrotation Xrotation Yrotation
      JOINT neck
      {
        OFFSET 0 22.1894 -2.19456
        CHANNELS 3 Zrotation Xrotation Yrotation
        JOINT head
        {
          OFFSET -0.24384 7.07133 1.2192
          CHANNELS 3 Zrotation Xrotation Yrotation
          JOINT leftEye
          {
            OFFSET 4.14528 8.04674 8.04672
            CHANNELS 3 Zrotation Xrotation Yrotation
            End Site
            {
              OFFSET 1 0 0
            }
          }
          JOINT rightEye
          {
            OFFSET -3.6576 8.04674 8.04672
            CHANNELS 3 Zrotation Xrotation Yrotation
            End Site
            {
              OFFSET 1 0 0
            }
          }
        }
      }
      JOINT rCollar
      {
        OFFSET -2.68224 19.2634 -4.8768
        CHANNELS 3 Zrotation Xrotation Yrotation
        JOINT rShldr
        {
          OFFSET -8.77824 -1.95073 1.46304
          CHANNELS 3 Zrotation Xrotation Yrotation
          JOINT rForeArm
          {
            OFFSET -28.1742 -1.7115 0.48768
            CHANNELS 3 Zrotation Xrotation Yrotation
            JOINT rHand
            {
              OFFSET -22.5879 0.773209 7.07136
              CHANNELS 3 Zrotation Xrotation Yrotation
              JOINT rThumb1
              {
                OFFSET -1.2192 -0.487915 3.41376
                CHANNELS 3 Zrotation Xrotation Yrotation
                JOINT rThumb2
                {
                  OFFSET -3.37035 -0.52449 3.41376
                  CHANNELS 3 Zrotation Xrotation Yrotation
                  End Site
                  {
                    OFFSET -1.78271 -1.18214 1.43049
                  }
                }
              }
              JOINT rIndex1
              {
                OFFSET -7.75947 0.938293 5.60832
                CHANNELS 3 Zrotation Xrotation Yrotation
                JOINT rIndex2
                {
                  OFFSET -2.54057 -0.884171 1.56538
                  CHANNELS 3 Zrotation Xrotation Yrotation
                  End Site
                  {
                    OFFSET -1.62519 -0.234802 1.16502
                  }
                }
              }
              JOINT rMid1
              {
                OFFSET -8.24714 1.18213 3.41376
                CHANNELS 3 Zrotation Xrotation Yrotation
                JOINT rMid2
                {
                  OFFSET -3.10165 -0.590103 1.0647
                  CHANNELS 3 Zrotation Xrotation Yrotation
                  End Site
                  {
                    OFFSET -2.48547 -0.328903 0.83742
                  }
                }
              }
              JOINT rRing1
              {
                OFFSET -8.82822 0.546677 1.51678
                CHANNELS 3 Zrotation Xrotation Yrotation
                JOINT rRing2
                {
                  OFFSET -2.60934 -0.819778 -0.0198488
                  CHANNELS 3 Zrotation Xrotation Yrotation
                  End Site
                  {
                    OFFSET -2.33842 -0.294052 0.168128
                  }
                }
              }
              JOINT rPinky1
              {
                OFFSET -8.27202 -0.0477905 -0.4584
                CHANNELS 3 Zrotation Xrotation Yrotation
                JOINT rPinky2
                {
                  OFFSET -1.82734 -0.647385 -0.700984
                  CHANNELS 3 Zrotation Xrotation Yrotation
                  End Site
                  {
                    OFFSET -1.69225 -0.51767 -0.607171
                  }
                }
              }
            }
          }
        }
      }
      JOINT lCollar
      {
        OFFSET 2.68224 19.2634 -4.8768
        CHANNELS 3 Zrotation Xrotation Yrotation
        JOINT lShldr
        {
          OFFSET 8.77824 -1.95073 1.46304
          CHANNELS 3 Zrotation Xrotation Yrotation
          JOINT lForeArm
          {
            OFFSET 28.1742 -1.7115 0.48768
            CHANNELS 3 Zrotation Xrotation Yrotation
            JOINT lHand
            {
              OFFSET 22.5879 0.773209 7.07136
              CHANNELS 3 Zrotation Xrotation Yrotation
              JOINT lThumb1
              {
                OFFSET 1.2192 -0.487915 3.41376
                CHANNELS 3 Zrotation Xrotation Yrotation
                JOINT lThumb2
                {
                  OFFSET 3.37035 -0.52449 3.41376
                  CHANNELS 3 Zrotation Xrotation Yrotation
                  End Site
                  {
                    OFFSET 1.78271 -1.18214 1.43049
                  }
                }
              }
              JOINT lIndex1
              {
                OFFSET 7.75947 0.938293 5.60832
                CHANNELS 3 Zrotation Xrotation Yrotation
                JOINT lIndex2
                {
                  OFFSET 2.54057 -0.884171 1.56538
                  CHANNELS 3 Zrotation Xrotation Yrotation
                  End Site
                  {
                    OFFSET 1.62519 -0.234802 1.16502
                  }
                }
              }
              JOINT lMid1
              {
                OFFSET 8.24714 1.18213 3.41376
                CHANNELS 3 Zrotation Xrotation Yrotation
                JOINT lMid2
                {
                  OFFSET 3.10165 -0.590103 1.0647
                  CHANNELS 3 Zrotation Xrotation Yrotation
                  End Site
                  {
                    OFFSET 2.48547 -0.328903 0.83742
                  }
                }
              }
              JOINT lRing1
              {
                OFFSET 8.82822 0.546677 1.51678
                CHANNELS 3 Zrotation Xrotation Yrotation
                JOINT lRing2
                {
                  OFFSET 2.60934 -0.819778 -0.0198488
                  CHANNELS 3 Zrotation Xrotation Yrotation
                  End Site
                  {
                    OFFSET 2.33842 -0.294052 0.168128
                  }
                }
              }
              JOINT lPinky1
              {
                OFFSET 8.27202 -0.0477905 -0.4584
                CHANNELS 3 Zrotation Xrotation Yrotation
                JOINT lPinky2
                {
                  OFFSET 1.82734 -0.647385 -0.700984
                  CHANNELS 3 Zrotation Xrotation Yrotation
                  End Site
                  {
                    OFFSET 1.69225 -0.51767 -0.607171
                  }
                }
              }
            }
          }
        }
      }
    }
  }
  JOINT rButtock
  {
    OFFSET -8.77824 4.35084 1.2192
    CHANNELS 3 Zrotation Xrotation Yrotation
    JOINT rThigh
    {
      OFFSET 0 -1.70687 -2.19456
      CHANNELS 3 Zrotation Xrotation Yrotation
      JOINT rShin
      {
        OFFSET 0 -36.8199 0.73152
        CHANNELS 3 Zrotation Xrotation Yrotation
        JOINT rFoot
        {
          OFFSET 0.73152 -45.1104 -5.12064
          CHANNELS 3 Zrotation Xrotation Yrotation
          End Site
          {
            OFFSET -1.1221 -3.69964 12.103
          }
        }
      }
    }
  }
  JOINT lButtock
  {
    OFFSET 8.77824 4.35084 1.2192
    CHANNELS 3 Zrotation Xrotation Yrotation
    JOINT lThigh
    {
      OFFSET 0 -1.70687 -2.19456
      CHANNELS 3 Zrotation Xrotation Yrotation
      JOINT lShin
      {
        OFFSET 0 -36.8199 0.73152
        CHANNELS 3 Zrotation Xrotation Yrotation
        JOINT lFoot
        {
          OFFSET -0.73152 -45.1104 -5.12064
          CHANNELS 3 Zrotation Xrotation Yrotation
          End Site
          {
            OFFSET 1.1221 -3.69964 12.103
          }
        }
      }
    }
  }
}
MOTION
Frames:	4
Frame Time:	0.00833333
-2.41292 82.4855 47.4308 0.0 0.0 0.0 -4.35894 0.0062924 -0.117455 -1.20158 0.0324761 -0.207681 -1.18519e-13 -2.38542e-15 1.63997e-15 -3.55834e-13 -6.36111e-15 5.06746e-15 -0.0 0.0 0.0 -0.0 0.0 0.0 -5.95433e-14 -6.91864e-16 9.93923e-16 -1.24612e-12 -1.52567e-14 1.39149e-14 -2.14589e-11 5.90987e-12 5.02528e-13 -2.45658e-10 -9.13351e-12 3.02789e-12 -5.79439e-10 -6.99067e-12 7.74147e-12 -1.00066e-09 -1.20734e-11 1.33774e-11 -5.79435e-10 -6.98887e-12 7.72557e-12 7.73091 5.47488 0.417314 -5.7944e-10 -6.99086e-12 7.73511e-12 2.90554 0.965183 0.102902 -5.7943e-10 -6.99056e-12 7.7359e-12 10.2786 0.731801 0.0259123 -5.79445e-10 -6.98768e-12 7.73829e-12 2.22167 -0.733487 -0.20892 -5.9632e-14 -6.99629e-16 6.95746e-16 -1.24817e-12 -1.44492e-14 1.25234e-14 -2.14772e-11 -6.90936e-12 5.40694e-13 -2.45587e-10 3.7167e-12 3.00244e-12 -5.7933e-10 -6.93549e-12 7.73829e-12 -1.00046e-09 -1.19811e-11 1.33878e-11 -5.79332e-10 -6.93878e-12 7.74147e-12 -7.73091 5.47488 -0.417314 -5.79328e-10 -6.93629e-12 7.73511e-12 -2.90554 0.965183 -0.102902 -5.79335e-10 -6.9357e-12 7.74227e-12 -10.2786 0.731801 -0.0259123 -5.79324e-10 -6.9344e-12 7.73511e-12 -2.22167 -0.733487 0.20892 -2.03217e-16 0.0 -3.88251e-19 -2.88815 -1.94435 0.0304154 -0.0079727 -2.07874 -0.0650935 -0.422298 4.00217 0.127122 2.03217e-16 0.0 3.88251e-19 -3.72547 -11.2507 0.483808 -0.0143127 14.7725 -0.388792 0.544928 -3.54242 0.0125018
-4.28763 82.2597 45.771 -8.5438 1.4269 6.7161 -2.4371 -1.70037 -0.398196 -1.36686 -2.82316 -0.366338 -3.36449 3.84841 -3.57085 5.83653 -2.16379 -6.71612 -0.0 0.0 0.0 -0.0 0.0 0.0 -3.33104e-14 -1.67043e-14 -1.30895e-14 22.654 7.17878 -1.92138 -5.49252 -2.81529 8.20326 0.00509253 1.58962 0.223101 -4.20443e-10 -3.1225e-10 1.16836e-10 -7.25155e-10 -5.41686e-10 2.02337e-10 -4.20439e-10 -3.12247e-10 1.16821e-10 7.73091 5.47488 0.417314 -4.20443e-10 -3.1225e-10 1.16832e-10 2.90554 0.965183 0.102902 -4.20435e-10 -3.1225e-10 1.16833e-10 10.2786 0.731801 0.0259123 -4.20448e-10 -3.12249e-10 1.16837e-10 2.22167 -0.733487 -0.20892 -3.33514e-14 -1.67086e-14 -1.33116e-14 -23.1375 -3.67433 3.06488 3.72 -1.60155 -5.90319 -0.0554506 5.25157 -0.727103 -2.80593e-10 5.87286e-11 -3.41399e-10 -4.89227e-10 9.82913e-11 -5.92486e-10 -2.80595e-10 5.87263e-11 -3.41393e-10 -7.73091 5.47488 -0.417314 -2.80591e-10 5.87276e-11 -3.414e-10 -2.90554 0.965183 -0.102902 -2.80599e-10 5.87285e-11 -3.41396e-10 -10.2786 0.731801 -0.0259123 -2.80587e-10 5.87304e-11 -3.41402e-10 -2.22167 -0.733487 0.20892 -2.03217e-16 0.0 -3.88251e-19 -0.851501 -2.14878 6.53584 0.00258704 -1.74921 0.028049 -0.898174 1.35614 -6.57028 2.03217e-16 0.0 3.88251e-19 -3.62195 -9.71901 -10.7855 -0.0129309 13.9531 -0.301872 1.17468 -7.79523 13.4073
-4.28322 82.2561 45.7625 -8.4994 1.3637 6.7602 -0.425562 -3.50157 -0.697052 -1.5581 -5.84255 -0.536128 -6.40012 7.86481 -7.40041 11.4655 -4.36034 -13.8471 -0.0 0.0 0.0 -0.0 0.0 0.0 -5.60234e-15 -3.36999e-14 -2.86188e-14 47.1387 14.7469 -4.05037 -10.433 -5.60035 16.9402 -0.0030035 3.25332 0.457182 -2.37725e-10 -6.66736e-10 2.45013e-10 -4.08512e-10 -1.1566e-09 4.24229e-10 -2.37722e-10 -6.66732e-10 2.44999e-10 7.73091 5.47488 0.417314 -2.37726e-10 -6.66736e-10 2.45012e-10 2.90554 0.965183 0.102902 -2.3772e-10 -6.66737e-10 2.45012e-10 10.2786 0.731801 0.0259123 -2.3773e-10 -6.66737e-10 2.45019e-10 2.22167 -0.733487 -0.20892 -5.59208e-15 -3.37006e-14 -2.87554e-14 -47.1684 -7.46199 6.35865 7.30724 -3.2453 -12.1768 0.0332305 10.7415 -1.50823 5.20853e-11 1.33874e-10 -7.13382e-10 8.03958e-11 2.24786e-10 -1.23832e-09 5.20816e-11 1.33873e-10 -7.13374e-10 -7.73091 5.47488 -0.417314 5.20859e-11 1.33873e-10 -7.13381e-10 -2.90554 0.965183 -0.102902 5.2078e-11 1.33874e-10 -7.13381e-10 -10.2786 0.731801 -0.0259123 5.20901e-11 1.33877e-10 -7.13386e-10 -2.22167 -0.733487 0.20892 -2.03217e-16 0.0 -3.88251e-19 1.35133 -2.32924 13.413 0.012585 -1.40039 0.126471 -2.06774 -1.38268 -13.6501 2.03217e-16 0.0 3.88251e-19 -2.8607 -7.8118 -22.5915 -0.00868447 13.0872 -0.210777 3.95167 -11.2957 27.8964
-4.27564 82.2526 45.7572 -8.4464 1.3236 6.7887 1.35622 -5.11311 -0.962985 -1.74544 -8.53398 -0.689957 -8.6394 11.3642 -10.9047 16.0153 -6.13517 -20.255 -0.0 0.0 0.0 -0.0 0.0 0.0 1.91553e-14 -4.87293e-14 -4.12564e-14 69.4947 21.4358 -6.14549 -14.1233 -7.75479 24.822 -0.0219698 4.76858 0.671369 -1.02449e-10 -9.22768e-10 3.35025e-10 -1.74139e-10 -1.60091e-09 5.80255e-10 -1.02446e-10 -9.22763e-10 3.35011e-10 7.73091 5.47488 0.417314 -1.02449e-10 -9.22768e-10 3.35027e-10 2.90554 0.965183 0.102902 -1.02446e-10 -9.2277e-10 3.35026e-10 10.2786 0.731801 0.0259123 -1.02454e-10 -9.22771e-10 3.35035e-10 2.22167 -0.733487 -0.20892 1.92098e-14 -4.87266e-14 -4.13262e-14 -68.2205 -10.8957 9.34568 10.1848 -4.60102 -17.7618 0.246669 15.7444 -2.25687 3.16881e-10 1.90057e-10 -1.03967e-09 5.33243e-10 3.18836e-10 -1.80423e-09 3.16877e-10 1.90056e-10 -1.03966e-09 -7.73091 5.47488 -0.417314 3.16882e-10 1.90055e-10 -1.03967e-09 -2.90554 0.965183 -0.102902 3.16873e-10 1.90057e-10 -1.03967e-09 -10.2786 0.731801 -0.0259123 3.16886e-10 1.9006e-10 -1.03968e-09 -2.22167 -0.733487 0.20892 -2.03217e-16 0.0 -3.88251e-19 3.35524 -2.45006 19.5515 0.0204918 -1.09013 0.214248 -3.67239 -3.67394 -20.0018 2.03217e-16 0.0 3.88251e-19 -1.60187 -6.01891 -33.0408 -0.00253932 12.3141 -0.130005 7.92221 -12.9378 41.0742
